<svg id="visual" viewBox="0 0 900 600" width="900" height="600" xmlns="http://www.w3.org/2000/svg" xmlns:xlink="http://www.w3.org/1999/xlink" version="1.1"><path d="M0 187L150 199L300 181L450 241L600 145L750 247L900 241L900 0L750 0L600 0L450 0L300 0L150 0L0 0Z" fill="#bfc46c"></path><path d="M0 355L150 361L300 343L450 343L600 325L750 361L900 355L900 239L750 245L600 143L450 239L300 179L150 197L0 185Z" fill="#b1a74f"></path><path d="M0 463L150 457L300 457L450 475L600 433L750 421L900 481L900 353L750 359L600 323L450 341L300 341L150 359L0 353Z" fill="#a28a35"></path><path d="M0 541L150 547L300 535L450 535L600 529L750 505L900 523L900 479L750 419L600 431L450 473L300 455L150 455L0 461Z" fill="#926e1c"></path><path d="M0 601L150 601L300 601L450 601L600 601L750 601L900 601L900 521L750 503L600 527L450 533L300 533L150 545L0 539Z" fill="#825303"></path></svg>