<svg id="visual" viewBox="0 0 900 600" width="900" height="600" xmlns="http://www.w3.org/2000/svg" xmlns:xlink="http://www.w3.org/1999/xlink" version="1.1"><path d="M0 127L100 133L200 79L300 91L400 85L500 61L600 67L700 97L800 127L900 121L900 0L800 0L700 0L600 0L500 0L400 0L300 0L200 0L100 0L0 0Z" fill="#bfc46c"></path><path d="M0 181L100 187L200 127L300 163L400 187L500 115L600 157L700 181L800 193L900 193L900 119L800 125L700 95L600 65L500 59L400 83L300 89L200 77L100 131L0 125Z" fill="#b4ad55"></path><path d="M0 301L100 361L200 277L300 367L400 373L500 385L600 271L700 367L800 313L900 295L900 191L800 191L700 179L600 155L500 113L400 185L300 161L200 125L100 185L0 179Z" fill="#a8953f"></path><path d="M0 463L100 451L200 463L300 481L400 493L500 493L600 511L700 505L800 463L900 463L900 293L800 311L700 365L600 269L500 383L400 371L300 365L200 275L100 359L0 299Z" fill="#9c7f2b"></path><path d="M0 517L100 517L200 523L300 529L400 565L500 553L600 559L700 547L800 517L900 523L900 461L800 461L700 503L600 509L500 491L400 491L300 479L200 461L100 449L0 461Z" fill="#8f6918"></path><path d="M0 601L100 601L200 601L300 601L400 601L500 601L600 601L700 601L800 601L900 601L900 521L800 515L700 545L600 557L500 551L400 563L300 527L200 521L100 515L0 515Z" fill="#825303"></path></svg>