<svg id="visual" viewBox="0 0 900 600" width="900" height="600" xmlns="http://www.w3.org/2000/svg" xmlns:xlink="http://www.w3.org/1999/xlink" version="1.1"><rect width="900" height="600" fill="#143d5a"></rect><g><g transform="translate(238 196)"><path d="M0 -83L71.9 -41.5L71.9 41.5L0 83L-71.9 41.5L-71.9 -41.5Z" fill="none" stroke="#297EA6" stroke-width="2"></path></g><g transform="translate(851 409)"><path d="M0 -81L70.1 -40.5L70.1 40.5L0 81L-70.1 40.5L-70.1 -40.5Z" fill="none" stroke="#297EA6" stroke-width="2"></path></g><g transform="translate(34 331)"><path d="M0 -63L54.6 -31.5L54.6 31.5L0 63L-54.6 31.5L-54.6 -31.5Z" fill="none" stroke="#297EA6" stroke-width="2"></path></g><g transform="translate(739 113)"><path d="M0 -65L56.3 -32.5L56.3 32.5L0 65L-56.3 32.5L-56.3 -32.5Z" stroke="#297EA6" fill="none" stroke-width="2"></path></g><g transform="translate(7 529)"><path d="M0 -54L46.8 -27L46.8 27L0 54L-46.8 27L-46.8 -27Z" stroke="#297EA6" fill="none" stroke-width="2"></path></g><g transform="translate(508 58)"><path d="M0 -80L69.3 -40L69.3 40L0 80L-69.3 40L-69.3 -40Z" stroke="#297EA6" fill="none" stroke-width="2"></path></g><g transform="translate(41 37)"><path d="M0 -61L52.8 -30.5L52.8 30.5L0 61L-52.8 30.5L-52.8 -30.5Z" stroke="#297EA6" fill="none" stroke-width="2"></path></g><g transform="translate(531 458)"><path d="M0 -79L68.4 -39.5L68.4 39.5L0 79L-68.4 39.5L-68.4 -39.5Z" stroke="#297EA6" fill="none" stroke-width="2"></path></g><g transform="translate(217 575)"><path d="M0 -64L55.4 -32L55.4 32L0 64L-55.4 32L-55.4 -32Z" stroke="#297EA6" fill="none" stroke-width="2"></path></g></g></svg>