<svg id="visual" viewBox="0 0 900 600" width="900" height="600" xmlns="http://www.w3.org/2000/svg" xmlns:xlink="http://www.w3.org/1999/xlink" version="1.1"><rect width="900" height="600" fill="#acb0bd"></rect><g><g transform="translate(42 339)"><path d="M0 -83L71.9 -41.5L71.9 41.5L0 83L-71.9 41.5L-71.9 -41.5Z" stroke="#0b3948" fill="none" stroke-width="2"></path></g><g transform="translate(462 311)"><path d="M0 -78L67.5 -39L67.5 39L0 78L-67.5 39L-67.5 -39Z" stroke="#0b3948" fill="none" stroke-width="2"></path></g><g transform="translate(158 578)"><path d="M0 -63L54.6 -31.5L54.6 31.5L0 63L-54.6 31.5L-54.6 -31.5Z" stroke="#0b3948" fill="none" stroke-width="2"></path></g><g transform="translate(857 342)"><path d="M0 -65L56.3 -32.5L56.3 32.5L0 65L-56.3 32.5L-56.3 -32.5Z" stroke="#0b3948" fill="none" stroke-width="2"></path></g><g transform="translate(639 255)"><path d="M0 -75L65 -37.5L65 37.5L0 75L-65 37.5L-65 -37.5Z" stroke="#0b3948" fill="none" stroke-width="2"></path></g><g transform="translate(893 17)"><path d="M0 -76L65.8 -38L65.8 38L0 76L-65.8 38L-65.8 -38Z" stroke="#0b3948" fill="none" stroke-width="2"></path></g><g transform="translate(688 525)"><path d="M0 -51L44.2 -25.5L44.2 25.5L0 51L-44.2 25.5L-44.2 -25.5Z" stroke="#0b3948" fill="none" stroke-width="2"></path></g><g transform="translate(272 281)"><path d="M0 -71L61.5 -35.5L61.5 35.5L0 71L-61.5 35.5L-61.5 -35.5Z" stroke="#0b3948" fill="none" stroke-width="2"></path></g><g transform="translate(199 55)"><path d="M0 -58L50.2 -29L50.2 29L0 58L-50.2 29L-50.2 -29Z" stroke="#0b3948" fill="none" stroke-width="2"></path></g></g></svg>