<svg id="visual" viewBox="0 0 900 600" width="900" height="600" xmlns="http://www.w3.org/2000/svg" xmlns:xlink="http://www.w3.org/1999/xlink" version="1.1"><rect width="900" height="600" fill="#D0D6B5"></rect><g><g transform="translate(368 62)"><path d="M0 -83L71.9 -41.5L71.9 41.5L0 83L-71.9 41.5L-71.9 -41.5Z" stroke="#9DBF9E" fill="none" stroke-width="2"></path></g><g transform="translate(397 300)"><path d="M0 -76L65.8 -38L65.8 38L0 76L-65.8 38L-65.8 -38Z" stroke="#9DBF9E" fill="none" stroke-width="2"></path></g><g transform="translate(660 412)"><path d="M0 -51L44.2 -25.5L44.2 25.5L0 51L-44.2 25.5L-44.2 -25.5Z" stroke="#9DBF9E" fill="none" stroke-width="2"></path></g><g transform="translate(144 536)"><path d="M0 -69L59.8 -34.5L59.8 34.5L0 69L-59.8 34.5L-59.8 -34.5Z" stroke="#9DBF9E" fill="none" stroke-width="2"></path></g><g transform="translate(663 119)"><path d="M0 -75L65 -37.5L65 37.5L0 75L-65 37.5L-65 -37.5Z" stroke="#9DBF9E" fill="none" stroke-width="2"></path></g><g transform="translate(81 333)"><path d="M0 -74L64.1 -37L64.1 37L0 74L-64.1 37L-64.1 -37Z" stroke="#9DBF9E" fill="none" stroke-width="2"></path></g><g transform="translate(879 72)"><path d="M0 -62L53.7 -31L53.7 31L0 62L-53.7 31L-53.7 -31Z" stroke="#9DBF9E" fill="none" stroke-width="2"></path></g><g transform="translate(462 511)"><path d="M0 -75L65 -37.5L65 37.5L0 75L-65 37.5L-65 -37.5Z" stroke="#9DBF9E" fill="none" stroke-width="2"></path></g><g transform="translate(149 18)"><path d="M0 -61L52.8 -30.5L52.8 30.5L0 61L-52.8 30.5L-52.8 -30.5Z" stroke="#9DBF9E" fill="none" stroke-width="2"></path></g></g></svg>