<svg id="visual" viewBox="0 0 900 600" width="900" height="600" xmlns="http://www.w3.org/2000/svg" xmlns:xlink="http://www.w3.org/1999/xlink" version="1.1"><rect width="900" height="600" fill="#9DBF9E"></rect><g><g transform="translate(379 64)"><path d="M0 -83L71.9 -41.5L71.9 41.5L0 83L-71.9 41.5L-71.9 -41.5Z" stroke="#D0D6B5" fill="none" stroke-width="2"></path></g><g transform="translate(183 588)"><path d="M0 -78L67.5 -39L67.5 39L0 78L-67.5 39L-67.5 -39Z" stroke="#D0D6B5" fill="none" stroke-width="2"></path></g><g transform="translate(380 420)"><path d="M0 -56L48.5 -28L48.5 28L0 56L-48.5 28L-48.5 -28Z" stroke="#D0D6B5" fill="none" stroke-width="2"></path></g><g transform="translate(815 582)"><path d="M0 -73L63.2 -36.5L63.2 36.5L0 73L-63.2 36.5L-63.2 -36.5Z" stroke="#D0D6B5" fill="none" stroke-width="2"></path></g><g transform="translate(570 419)"><path d="M0 -57L49.4 -28.5L49.4 28.5L0 57L-49.4 28.5L-49.4 -28.5Z" stroke="#D0D6B5" fill="none" stroke-width="2"></path></g><g transform="translate(736 50)"><path d="M0 -66L57.2 -33L57.2 33L0 66L-57.2 33L-57.2 -33Z" stroke="#D0D6B5" fill="none" stroke-width="2"></path></g><g transform="translate(24 183)"><path d="M0 -77L66.7 -38.5L66.7 38.5L0 77L-66.7 38.5L-66.7 -38.5Z" stroke="#D0D6B5" fill="none" stroke-width="2"></path></g><g transform="translate(552 592)"><path d="M0 -77L66.7 -38.5L66.7 38.5L0 77L-66.7 38.5L-66.7 -38.5Z" stroke="#D0D6B5" fill="none" stroke-width="2"></path></g><g transform="translate(669 210)"><path d="M0 -61L52.8 -30.5L52.8 30.5L0 61L-52.8 30.5L-52.8 -30.5Z" stroke="#D0D6B5" fill="none" stroke-width="2"></path></g><g transform="translate(201 48)"><path d="M0 -77L66.7 -38.5L66.7 38.5L0 77L-66.7 38.5L-66.7 -38.5Z" stroke="#D0D6B5" fill="none" stroke-width="2"></path></g></g></svg>