<svg id="visual" viewBox="0 0 900 600" width="900" height="600" xmlns="http://www.w3.org/2000/svg" xmlns:xlink="http://www.w3.org/1999/xlink" version="1.1"><path d="M0 61L82 109L164 145L245 79L327 109L409 127L491 127L573 49L655 145L736 79L818 49L900 55L900 0L818 0L736 0L655 0L573 0L491 0L409 0L327 0L245 0L164 0L82 0L0 0Z" fill="#cc9900"></path><path d="M0 217L82 265L164 289L245 265L327 223L409 247L491 211L573 115L655 211L736 205L818 151L900 199L900 53L818 47L736 77L655 143L573 47L491 125L409 125L327 107L245 77L164 143L82 107L0 59Z" fill="#569a41"></path><path d="M0 343L82 361L164 487L245 487L327 391L409 385L491 451L573 457L655 391L736 331L818 475L900 439L900 197L818 149L736 203L655 209L573 113L491 209L409 245L327 221L245 263L164 287L82 263L0 215Z" fill="#00857a"></path><path d="M0 601L82 601L164 601L245 601L327 601L409 601L491 601L573 601L655 601L736 601L818 601L900 601L900 437L818 473L736 329L655 389L573 455L491 449L409 383L327 389L245 485L164 485L82 359L0 341Z" fill="#036582"></path></svg>