<svg id="visual" viewBox="0 0 960 540" width="960" height="540" xmlns="http://www.w3.org/2000/svg" xmlns:xlink="http://www.w3.org/1999/xlink" version="1.1"><path d="M0 39L120 66L240 55L360 77L480 50L600 44L720 39L840 71L960 44L960 0L840 0L720 0L600 0L480 0L360 0L240 0L120 0L0 0Z" fill="#bce66f"></path><path d="M0 141L120 201L240 293L360 244L480 125L600 228L720 136L840 244L960 249L960 42L840 69L720 37L600 42L480 48L360 75L240 53L120 64L0 37Z" fill="#88cf74"></path><path d="M0 336L120 395L240 428L360 368L480 309L600 347L720 363L840 357L960 357L960 247L840 242L720 134L600 226L480 123L360 242L240 291L120 199L0 139Z" fill="#5ab778"></path><path d="M0 471L120 492L240 492L360 471L480 433L600 449L720 465L840 471L960 476L960 355L840 355L720 361L600 345L480 307L360 366L240 426L120 393L0 334Z" fill="#309d78"></path><path d="M0 541L120 541L240 541L360 541L480 541L600 541L720 541L840 541L960 541L960 474L840 469L720 463L600 447L480 431L360 469L240 490L120 490L0 469Z" fill="#038373"></path></svg>