<svg id="visual" viewBox="0 0 900 600" width="900" height="600" xmlns="http://www.w3.org/2000/svg" xmlns:xlink="http://www.w3.org/1999/xlink" version="1.1"><path d="M0 115L82 97L164 169L245 235L327 163L409 115L491 91L573 109L655 97L736 121L818 103L900 163L900 0L818 0L736 0L655 0L573 0L491 0L409 0L327 0L245 0L164 0L82 0L0 0Z" fill="#0084cc"></path><path d="M0 223L82 229L164 217L245 319L327 241L409 199L491 253L573 211L655 235L736 277L818 259L900 241L900 161L818 101L736 119L655 95L573 107L491 89L409 113L327 161L245 233L164 167L82 95L0 113Z" fill="#0078b9"></path><path d="M0 277L82 307L164 307L245 379L327 331L409 265L491 301L573 253L655 307L736 313L818 307L900 331L900 239L818 257L736 275L655 233L573 209L491 251L409 197L327 239L245 317L164 215L82 227L0 221Z" fill="#006ca6"></path><path d="M0 487L82 487L164 493L245 553L327 535L409 487L491 517L573 535L655 505L736 511L818 493L900 547L900 329L818 305L736 311L655 305L573 251L491 299L409 263L327 329L245 377L164 305L82 305L0 275Z" fill="#016094"></path><path d="M0 601L82 601L164 601L245 601L327 601L409 601L491 601L573 601L655 601L736 601L818 601L900 601L900 545L818 491L736 509L655 503L573 533L491 515L409 485L327 533L245 551L164 491L82 485L0 485Z" fill="#035582"></path></svg>